<svg xmlns="http://www.w3.org/2000/svg" xmlns:xlink="http://www.w3.org/1999/xlink" width="1920" height="251.471" viewBox="0 0 1920 251.471">
  <defs>
    <clipPath id="clip-path">
      <rect id="Retângulo_2" data-name="Retângulo 2" width="1920" height="251.471" fill="#e88c75"/>
    </clipPath>
  </defs>
  <g id="Grupo_15" data-name="Grupo 15" transform="translate(1920 251.471) rotate(180)">
    <g id="Grupo_1" data-name="Grupo 1" clip-path="url(#clip-path)">
      <path id="Caminho_1" data-name="Caminho 1" d="M1920,233.868l-34.286,11.847a104.978,104.978,0,0,1-68.571,0h0a104.978,104.978,0,0,0-68.571,0,104.978,104.978,0,0,1-68.571,0,104.982,104.982,0,0,0-68.572,0,104.978,104.978,0,0,1-68.571,0,104.978,104.978,0,0,0-68.571,0,104.981,104.981,0,0,1-68.572,0,104.978,104.978,0,0,0-68.571,0,104.978,104.978,0,0,1-68.571,0,104.982,104.982,0,0,0-68.572,0,104.978,104.978,0,0,1-68.571,0,104.978,104.978,0,0,0-68.571,0h0a104.978,104.978,0,0,1-68.571,0,104.978,104.978,0,0,0-68.571,0,104.978,104.978,0,0,1-68.571,0h0a104.978,104.978,0,0,0-68.571,0,104.978,104.978,0,0,1-68.571,0,104.978,104.978,0,0,0-68.571,0h0a104.978,104.978,0,0,1-68.571,0,104.978,104.978,0,0,0-68.571,0,104.982,104.982,0,0,1-68.572,0,104.978,104.978,0,0,0-68.571,0,104.978,104.978,0,0,1-68.571,0,104.982,104.982,0,0,0-68.572,0,104.978,104.978,0,0,1-68.571,0,104.978,104.978,0,0,0-68.571,0,104.982,104.982,0,0,1-68.572,0L0,233.868V0H1920Z" fill="#e88c75"/>
    </g>
  </g>
</svg>
