<svg id="Grupo_2" data-name="Grupo 2" xmlns="http://www.w3.org/2000/svg" xmlns:xlink="http://www.w3.org/1999/xlink" width="1921" height="251.602" viewBox="0 0 1921 251.602">
  <defs>
    <clipPath id="clip-path">
      <rect id="Retângulo_2" data-name="Retângulo 2" width="1921" height="251.602" fill="#fbfbfb"/>
    </clipPath>
  </defs>
  <g id="Grupo_1" data-name="Grupo 1" clip-path="url(#clip-path)">
    <path id="Caminho_1" data-name="Caminho 1" d="M1921,233.99l-34.3,11.853a105.033,105.033,0,0,1-68.607,0h0a105.033,105.033,0,0,0-68.607,0,105.032,105.032,0,0,1-68.607,0,105.037,105.037,0,0,0-68.608,0,105.032,105.032,0,0,1-68.607,0,105.033,105.033,0,0,0-68.607,0,105.036,105.036,0,0,1-68.608,0,105.033,105.033,0,0,0-68.607,0,105.033,105.033,0,0,1-68.607,0,105.036,105.036,0,0,0-68.608,0,105.033,105.033,0,0,1-68.607,0,105.033,105.033,0,0,0-68.607,0h0a105.033,105.033,0,0,1-68.607,0,105.033,105.033,0,0,0-68.607,0,105.033,105.033,0,0,1-68.607,0h0a105.033,105.033,0,0,0-68.607,0,105.033,105.033,0,0,1-68.607,0,105.033,105.033,0,0,0-68.607,0h0a105.033,105.033,0,0,1-68.607,0,105.033,105.033,0,0,0-68.607,0,105.036,105.036,0,0,1-68.608,0,105.033,105.033,0,0,0-68.607,0,105.033,105.033,0,0,1-68.607,0,105.036,105.036,0,0,0-68.608,0,105.033,105.033,0,0,1-68.607,0,105.033,105.033,0,0,0-68.607,0,105.036,105.036,0,0,1-68.608,0L0,233.99V0H1921Z" fill="#fbfbfb"/>
  </g>
</svg>
