<svg id="Grupo_9" data-name="Grupo 9" xmlns="http://www.w3.org/2000/svg" xmlns:xlink="http://www.w3.org/1999/xlink" width="272.142" height="61.155" viewBox="0 0 272.142 61.155">
  <defs>
    <clipPath id="clip-path">
      <rect id="Ret창ngulo_3" data-name="Ret창ngulo 3" width="272.141" height="61.155" fill="none"/>
    </clipPath>
    <clipPath id="clip-path-2">
      <path id="Caminho_3" data-name="Caminho 3" d="M39.411,0a22.927,22.927,0,0,0-22.29,21.85,22.446,22.446,0,0,0,3.165,12.2,8.253,8.253,0,1,1-9.19-4.665,2.236,2.236,0,0,0,1.723-2.493c-.006-.043-.014-.086-.02-.129a2.2,2.2,0,0,0-2.6-1.816,12.726,12.726,0,1,0,13.9,6.6,17.938,17.938,0,1,1,31.456-17.22,1.227,1.227,0,0,1-1.087,1.8h-.019A22.516,22.516,0,1,0,76.963,38.639c0-.491-.045-1.348-.073-1.832V36.73a14.75,14.75,0,1,0-6.061-28.2,2.313,2.313,0,0,0,1.86,4.236,10.126,10.126,0,1,1,1.755,19.042,2.2,2.2,0,0,0-2.678,2.639A17.79,17.79,0,1,1,60.411,21.794a1.228,1.228,0,0,0,1.646-1.254A22.518,22.518,0,0,0,39.628,0h-.217" transform="translate(0)" fill="none"/>
    </clipPath>
    <linearGradient id="linear-gradient" x1="0.004" y1="0.997" x2="0.02" y2="0.997" gradientUnits="objectBoundingBox">
      <stop offset="0" stop-color="#51b6bd"/>
      <stop offset="1" stop-color="#6bbbab"/>
    </linearGradient>
  </defs>
  <g id="Grupo_4" data-name="Grupo 4" transform="translate(0 0)">
    <g id="Grupo_3" data-name="Grupo 3" clip-path="url(#clip-path)">
      <path id="Caminho_2" data-name="Caminho 2" d="M45.154,28.669A3.745,3.745,0,0,1,42.072,23.5a1.791,1.791,0,0,0-1.656-2.49c-.169,0-.34.007-.511.019a8.393,8.393,0,1,0,8.86,9.621c.007-.047.014-.095.02-.142A1.8,1.8,0,0,0,46.5,28.562a3.75,3.75,0,0,1-1.343.108" transform="translate(13.982 9.159)" fill="#e17661"/>
    </g>
  </g>
  <g id="Grupo_6" data-name="Grupo 6" transform="translate(0)">
    <g id="Grupo_5" data-name="Grupo 5" clip-path="url(#clip-path-2)">
      <rect id="Ret창ngulo_4" data-name="Ret창ngulo 4" width="92.035" height="61.328" transform="translate(-0.365 0)" fill="url(#linear-gradient)"/>
    </g>
  </g>
  <g id="Grupo_8" data-name="Grupo 8" transform="translate(0 0)">
    <g id="Grupo_7" data-name="Grupo 7" clip-path="url(#clip-path)">
      <path id="Caminho_4" data-name="Caminho 4" d="M78.6,24.654A5.122,5.122,0,0,0,81.791,23.5c.432-.336.768-.383,1.129-.024l.5.5a.685.685,0,0,1-.023,1.08,7.421,7.421,0,0,1-5.016,1.8,6.161,6.161,0,0,1-6.478-6.287,6.17,6.17,0,1,1,12.332-.24c0,.625-.287.936-.959.936H74.761a3.675,3.675,0,0,0,3.84,3.383m-3.815-5.279h6.6a3.51,3.51,0,0,0-.912-1.967,3.143,3.143,0,0,0-2.4-.959,3.189,3.189,0,0,0-3.287,2.926" transform="translate(31.348 6.229)" fill="#51b6bd"/>
      <path id="Caminho_5" data-name="Caminho 5" d="M81.8,25.046a.785.785,0,0,1-.024-1.272l.336-.383a.827.827,0,0,1,1.3-.049,4.384,4.384,0,0,0,3.023,1.272c1.127,0,1.871-.5,1.871-1.3,0-1.031-1.08-1.391-2.254-1.871-1.9-.672-3.912-1.44-3.912-3.647,0-2.135,1.752-3.527,4.439-3.527a5.843,5.843,0,0,1,3.983,1.439.805.805,0,0,1,.047,1.3l-.287.383a.863.863,0,0,1-1.272.1,3.456,3.456,0,0,0-2.471-.984c-1.008,0-1.656.455-1.656,1.127,0,.816,1.032,1.152,2.447,1.727,2.016.816,3.744,1.631,3.744,3.935,0,2.207-1.9,3.6-4.655,3.6A6.56,6.56,0,0,1,81.8,25.046" transform="translate(35.513 6.222)" fill="#51b6bd"/>
      <path id="Caminho_6" data-name="Caminho 6" d="M97.6,27.372a4.591,4.591,0,0,1-2.592.719,3.816,3.816,0,0,1-4.054-4.2v-6H89.735a.8.8,0,0,1-.889-.84v-.527a.8.8,0,0,1,.889-.84h1.223V12.544c0-.5.287-.767.84-.887l1.1-.168c.623-.121.912.24.912.84v3.359h2.758a.788.788,0,0,1,.864.84v.527a.788.788,0,0,1-.864.84H93.813v5.783c0,1.391.672,1.943,1.656,1.943a2.112,2.112,0,0,0,1.127-.383c.551-.336.816-.1,1.032.312l.359.816c.264.5-.1.816-.383,1.008" transform="translate(38.733 4.998)" fill="#51b6bd"/>
      <path id="Caminho_7" data-name="Caminho 7" d="M108.934,26.379a3.432,3.432,0,0,1-1.752.432,2.216,2.216,0,0,1-2.351-1.944,4.072,4.072,0,0,1-3.672,1.944,4.6,4.6,0,0,1-4.846-4.92V15.27a.776.776,0,0,1,.84-.863h1.2a.776.776,0,0,1,.84.863V21.6a2.516,2.516,0,0,0,2.567,2.735,2.585,2.585,0,0,0,2.687-2.832V15.27a.776.776,0,0,1,.84-.863h1.2a.787.787,0,0,1,.839.863v8.637c0,.287.073.48.336.48a2.379,2.379,0,0,0,.553-.144c.383-.121.623.072.767.5l.217.672c.215.527.047.791-.264.959" transform="translate(41.989 6.281)" fill="#51b6bd"/>
      <path id="Caminho_8" data-name="Caminho 8" d="M120.412,27.9a3.417,3.417,0,0,1-1.752.432,2.239,2.239,0,0,1-2.351-1.848,5.325,5.325,0,0,1-4.127,1.848,6.006,6.006,0,0,1-6.047-6.287,6.052,6.052,0,0,1,9.789-4.99V11.995c0-.505.289-.768.84-.889l1.127-.168c.625-.119.912.24.912.84V25.43c0,.289.072.48.336.48a2.282,2.282,0,0,0,.551-.144c.385-.121.625.072.768.5l.215.672c.217.527.049.791-.263.959m-4.294-5.854a3.477,3.477,0,0,0-3.527-3.791,3.577,3.577,0,0,0-3.577,3.791,3.577,3.577,0,0,0,3.577,3.791,3.49,3.49,0,0,0,3.527-3.791" transform="translate(46.271 4.758)" fill="#51b6bd"/>
      <path id="Caminho_9" data-name="Caminho 9" d="M117.33,12.264a1.919,1.919,0,1,1,1.918,1.92,1.925,1.925,0,0,1-1.918-1.92m.48,15.164V17.039a.777.777,0,0,1,.84-.863h1.2a.776.776,0,0,1,.84.863V27.428a.777.777,0,0,1-.84.864h-1.2a.777.777,0,0,1-.84-.864" transform="translate(51.151 4.51)" fill="#51b6bd"/>
      <path id="Caminho_10" data-name="Caminho 10" d="M121.44,20.575a6.518,6.518,0,1,1,6.5,6.287,6.225,6.225,0,0,1-6.5-6.287m10.148,0a3.638,3.638,0,1,0-7.269,0,3.638,3.638,0,1,0,7.269,0" transform="translate(52.943 6.23)" fill="#51b6bd"/>
      <path id="Caminho_11" data-name="Caminho 11" d="M148.5,19.375v6.334a.788.788,0,0,1-.839.864h-1.225a.788.788,0,0,1-.839-.864V19.615a2.6,2.6,0,0,0-2.713-2.855,2.682,2.682,0,0,0-2.806,2.855v6.094a.789.789,0,0,1-.84.864h-1.223a.788.788,0,0,1-.84-.864V17.217c0-.264-.1-.409-.336-.409a3.608,3.608,0,0,0-.648.169c-.287.119-.553-.024-.719-.481l-.192-.816c-.168-.5-.072-.793.312-1.008a3.4,3.4,0,0,1,1.631-.383,2.229,2.229,0,0,1,2.424,1.992,4.506,4.506,0,0,1,3.91-1.992,4.749,4.749,0,0,1,4.943,5.086" transform="translate(58.942 6.229)" fill="#51b6bd"/>
      <path id="Caminho_12" data-name="Caminho 12" d="M159.186,28.227a3.417,3.417,0,0,1-1.752.432,2.218,2.218,0,0,1-2.352-1.943,4.071,4.071,0,0,1-3.67,1.943,4.6,4.6,0,0,1-4.846-4.918V17.119a.777.777,0,0,1,.84-.863h1.2a.776.776,0,0,1,.84.863v6.334a2.516,2.516,0,0,0,2.568,2.736,2.584,2.584,0,0,0,2.687-2.832V17.119a.777.777,0,0,1,.84-.863h1.2a.787.787,0,0,1,.839.863v8.637c0,.289.073.481.336.481a2.286,2.286,0,0,0,.551-.145c.385-.119.625.072.768.5l.215.672c.217.528.049.791-.263.959m-9.91-14.4c-.264-.408-.095-.744.336-1.031l3.527-2.4c.5-.383.84-.264,1.08.072l.5.912c.312.48.168.791-.287,1.055l-3.864,1.92c-.455.24-.791.24-1.007-.049Z" transform="translate(63.896 4.43)" fill="#51b6bd"/>
      <path id="Caminho_13" data-name="Caminho 13" d="M168.692,15.32l-4.822,10.557c-.264.551-.576.816-1.032.816h-.215a1.07,1.07,0,0,1-1.008-.816l-3.791-8.4c-.192-.432-.432-.768-.744-.791a1.4,1.4,0,0,0-.48.119c-.455.168-.672-.023-.84-.455l-.215-.744a.688.688,0,0,1,.287-.961,2.932,2.932,0,0,1,1.536-.359c1.463,0,2.279.912,3,2.83L162.791,23l3.119-7.678c.215-.551.5-.863,1.055-.863h1.1c.528,0,.84.359.625.863" transform="translate(67.775 6.229)" fill="#51b6bd"/>
      <path id="Caminho_14" data-name="Caminho 14" d="M172,24.654a5.122,5.122,0,0,0,3.191-1.152c.432-.336.768-.383,1.129-.024l.5.5a.685.685,0,0,1-.023,1.08,7.421,7.421,0,0,1-5.016,1.8,6.161,6.161,0,0,1-6.478-6.287,6.17,6.17,0,1,1,12.332-.24c0,.625-.287.936-.959.936h-8.518A3.675,3.675,0,0,0,172,24.654m-3.815-5.279h6.6a3.51,3.51,0,0,0-.912-1.967,3.143,3.143,0,0,0-2.4-.959,3.189,3.189,0,0,0-3.287,2.926" transform="translate(72.068 6.229)" fill="#51b6bd"/>
      <path id="Caminho_15" data-name="Caminho 15" d="M196,19.375v6.334a.776.776,0,0,1-.839.864h-1.2a.777.777,0,0,1-.84-.864V19.615c0-1.727-.959-2.855-2.592-2.855a2.671,2.671,0,0,0-2.758,2.855v6.094a.788.788,0,0,1-.839.864h-1.225a.788.788,0,0,1-.839-.864V19.615c0-1.727-.936-2.855-2.592-2.855a2.672,2.672,0,0,0-2.76,2.855v6.094a.788.788,0,0,1-.839.864h-1.225a.788.788,0,0,1-.839-.864V17.217c0-.264-.1-.409-.312-.409a3.365,3.365,0,0,0-.672.169c-.289.119-.551-.024-.7-.481l-.192-.816c-.191-.5-.095-.793.289-1.008a3.462,3.462,0,0,1,1.631-.383,2.23,2.23,0,0,1,2.424,1.992,4.433,4.433,0,0,1,3.887-1.992,4.493,4.493,0,0,1,3.982,2.015,5.019,5.019,0,0,1,4.174-2.015c2.975,0,4.871,2.039,4.871,5.086" transform="translate(76.14 6.229)" fill="#51b6bd"/>
      <path id="Caminho_16" data-name="Caminho 16" d="M72.744,33.7V28.565a.448.448,0,0,1,.5-.5H76.9a.448.448,0,0,1,.5.5v.586a.449.449,0,0,1-.5.5H74.708v.9h1.5a.453.453,0,0,1,.5.5v.481a.453.453,0,0,1-.5.5h-1.5V33.7a.456.456,0,0,1-.51.5h-.955a.449.449,0,0,1-.5-.5" transform="translate(31.713 12.235)" fill="#51b6bd"/>
      <path id="Caminho_17" data-name="Caminho 17" d="M76.171,31.168a3.448,3.448,0,1,1,3.436,3.182,3.235,3.235,0,0,1-3.436-3.182m4.872,0a1.435,1.435,0,1,0-1.436,1.416,1.4,1.4,0,0,0,1.436-1.416" transform="translate(33.207 12.2)" fill="#51b6bd"/>
      <path id="Caminho_18" data-name="Caminho 18" d="M82.917,33.7V29.652h-1.35a.452.452,0,0,1-.5-.51v-.577a.449.449,0,0,1,.5-.5h4.664a.453.453,0,0,1,.5.5v.577a.456.456,0,0,1-.5.51h-1.35V33.7a.453.453,0,0,1-.5.5h-.964a.453.453,0,0,1-.5-.5" transform="translate(35.341 12.235)" fill="#51b6bd"/>
      <path id="Caminho_19" data-name="Caminho 19" d="M85.118,31.168a3.448,3.448,0,1,1,3.436,3.182,3.235,3.235,0,0,1-3.436-3.182m4.872,0a1.435,1.435,0,1,0-1.436,1.416,1.4,1.4,0,0,0,1.436-1.416" transform="translate(37.108 12.2)" fill="#51b6bd"/>
      <path id="Caminho_20" data-name="Caminho 20" d="M90.289,31.168a3.175,3.175,0,0,1,3.3-3.182,3.322,3.322,0,0,1,2.295.869.445.445,0,0,1,0,.717l-.557.511a.5.5,0,0,1-.708,0,1.665,1.665,0,0,0-.964-.332,1.417,1.417,0,0,0,.056,2.833,1.318,1.318,0,0,0,.8-.236.977.977,0,0,0,.369-.415H94.15a.447.447,0,0,1-.49-.493v-.395a.447.447,0,0,1,.49-.493h2.239a.443.443,0,0,1,.491.493v.188a2.984,2.984,0,0,1-.964,2.219,3.324,3.324,0,0,1-2.332.9,3.164,3.164,0,0,1-3.3-3.182" transform="translate(39.362 12.2)" fill="#51b6bd"/>
      <path id="Caminho_21" data-name="Caminho 21" d="M100.992,34.119a1.756,1.756,0,0,1-.831.2,1.489,1.489,0,0,1-1.445-.964l-.378-.662c-.2-.33-.246-.6-.755-.6H97.4V33.7a.456.456,0,0,1-.51.5h-.955a.449.449,0,0,1-.5-.5V28.565a.448.448,0,0,1,.5-.5h2.352c1.634,0,2.513.8,2.513,2.068a1.8,1.8,0,0,1-1.143,1.69c.122.02.207.1.32.3l.19.3a.747.747,0,0,0,.151.2.433.433,0,0,0,.274-.029c.227-.076.3.029.4.312l.227.7c.1.322-.047.416-.227.511M97.4,30.8H98.2a.552.552,0,0,0,.6-.557.571.571,0,0,0-.6-.594H97.4Z" transform="translate(41.607 12.235)" fill="#51b6bd"/>
      <path id="Caminho_22" data-name="Caminho 22" d="M106.32,34.161a1.9,1.9,0,0,1-.821.179,1.532,1.532,0,0,1-1.1-.415,2.411,2.411,0,0,1-.435-.594h-2.049l-.151.386c-.123.322-.19.5-.52.5h-1.153c-.339,0-.518-.19-.368-.5l2.493-5.184a.775.775,0,0,1,.737-.5h.113a.775.775,0,0,1,.737.5l1.756,3.871a.511.511,0,0,0,.132.208.447.447,0,0,0,.264-.029c.237-.066.33.029.4.3l.2.775c.085.32-.047.424-.227.5m-3.9-2.115h1.03l-.472-1.389Z" transform="translate(43.45 12.221)" fill="#51b6bd"/>
      <path id="Caminho_23" data-name="Caminho 23" d="M104.86,33.7V28.565a.448.448,0,0,1,.5-.5h3.656a.448.448,0,0,1,.5.5v.586a.449.449,0,0,1-.5.5h-2.191v.9h1.5a.453.453,0,0,1,.5.5v.481a.453.453,0,0,1-.5.5h-1.5V33.7a.456.456,0,0,1-.51.5h-.955a.449.449,0,0,1-.5-.5" transform="translate(45.715 12.235)" fill="#51b6bd"/>
      <path id="Caminho_24" data-name="Caminho 24" d="M108.616,33.7V28.565a.448.448,0,0,1,.5-.5h.955a.456.456,0,0,1,.51.5V33.7a.456.456,0,0,1-.51.5h-.955a.449.449,0,0,1-.5-.5" transform="translate(47.352 12.235)" fill="#51b6bd"/>
      <path id="Caminho_25" data-name="Caminho 25" d="M117.075,34.161a1.9,1.9,0,0,1-.821.179,1.532,1.532,0,0,1-1.1-.415,2.411,2.411,0,0,1-.435-.594h-2.049l-.151.386c-.123.322-.19.5-.52.5h-1.153c-.339,0-.518-.19-.368-.5l2.493-5.184a.775.775,0,0,1,.737-.5h.113a.775.775,0,0,1,.737.5L116.31,32.4a.511.511,0,0,0,.132.208.447.447,0,0,0,.264-.029c.237-.066.33.029.4.3l.2.775c.085.32-.047.424-.227.5m-3.9-2.115h1.03l-.472-1.389Z" transform="translate(48.139 12.221)" fill="#51b6bd"/>
      <path id="Caminho_26" data-name="Caminho 26" d="M116.714,33.7V28.565a.448.448,0,0,1,.5-.5h.955a.456.456,0,0,1,.51.5V33.7a.456.456,0,0,1-.51.5h-.955a.449.449,0,0,1-.5-.5" transform="translate(50.882 12.235)" fill="#51b6bd"/>
      <path id="Caminho_27" data-name="Caminho 27" d="M124.725,28.579v5.033c0,.472-.33.652-.718.652h-.122a1.123,1.123,0,0,1-.889-.5l-2.153-2.5v2.455a.456.456,0,0,1-.51.5h-.955a.448.448,0,0,1-.5-.5V28.682c0-.471.322-.65.718-.65h.113a1.15,1.15,0,0,1,.9.5l2.154,2.511V28.579a.449.449,0,0,1,.5-.5h.955a.456.456,0,0,1,.51.5" transform="translate(51.826 12.221)" fill="#51b6bd"/>
      <path id="Caminho_28" data-name="Caminho 28" d="M123.747,33.7V28.565a.448.448,0,0,1,.5-.5H127.9a.448.448,0,0,1,.5.5v.586a.449.449,0,0,1-.5.5h-2.191v.9h1.5a.453.453,0,0,1,.5.5v.481a.453.453,0,0,1-.5.5h-1.5V33.7a.456.456,0,0,1-.51.5h-.955a.449.449,0,0,1-.5-.5" transform="translate(53.949 12.235)" fill="#51b6bd"/>
      <path id="Caminho_29" data-name="Caminho 29" d="M133.245,34.161a1.9,1.9,0,0,1-.821.179,1.532,1.532,0,0,1-1.1-.415,2.411,2.411,0,0,1-.435-.594h-2.049l-.151.386c-.123.322-.19.5-.52.5h-1.153c-.339,0-.518-.19-.368-.5l2.493-5.184a.775.775,0,0,1,.737-.5h.113a.775.775,0,0,1,.737.5L132.48,32.4a.511.511,0,0,0,.132.208.447.447,0,0,0,.264-.029c.237-.066.33.029.4.3l.2.775c.085.32-.047.424-.227.5m-3.9-2.115h1.03l-.472-1.389Z" transform="translate(55.188 12.221)" fill="#51b6bd"/>
      <path id="Caminho_30" data-name="Caminho 30" d="M137.632,28.579v5.033c0,.472-.332.652-.718.652h-.123a1.125,1.125,0,0,1-.889-.5l-2.151-2.5v2.455a.456.456,0,0,1-.511.5h-.955a.449.449,0,0,1-.5-.5V28.682c0-.471.323-.65.718-.65h.115a1.147,1.147,0,0,1,.895.5l2.154,2.511V28.579a.45.45,0,0,1,.5-.5h.953a.456.456,0,0,1,.511.5" transform="translate(57.453 12.221)" fill="#51b6bd"/>
      <path id="Caminho_31" data-name="Caminho 31" d="M138.169,33.7V29.652h-1.35a.452.452,0,0,1-.5-.51v-.577a.449.449,0,0,1,.5-.5h4.664a.453.453,0,0,1,.5.5v.577a.456.456,0,0,1-.5.51h-1.35V33.7a.453.453,0,0,1-.5.5h-.964a.453.453,0,0,1-.5-.5" transform="translate(59.429 12.235)" fill="#51b6bd"/>
      <path id="Caminho_32" data-name="Caminho 32" d="M140.732,33.7V28.565a.448.448,0,0,1,.5-.5h.955a.456.456,0,0,1,.51.5V33.7a.456.456,0,0,1-.51.5h-.955a.449.449,0,0,1-.5-.5" transform="translate(61.353 12.235)" fill="#51b6bd"/>
      <path id="Caminho_33" data-name="Caminho 33" d="M142.9,33.7V28.565a.448.448,0,0,1,.5-.5h.955a.456.456,0,0,1,.51.5v4.052h1.785a.456.456,0,0,1,.5.51V33.7a.453.453,0,0,1-.5.5H143.4a.449.449,0,0,1-.5-.5" transform="translate(62.297 12.235)" fill="#51b6bd"/>
      <path id="Caminho_34" data-name="Caminho 34" d="M147.429,33.7V28.565a.448.448,0,0,1,.5-.5h3.721a.453.453,0,0,1,.5.5v.586a.453.453,0,0,1-.5.5h-2.256V30.4h1.587a.449.449,0,0,1,.5.5v.481a.453.453,0,0,1-.5.5h-1.587v.737h2.285a.456.456,0,0,1,.5.51V33.7a.453.453,0,0,1-.5.5h-3.749a.449.449,0,0,1-.5-.5" transform="translate(64.273 12.235)" fill="#51b6bd"/>
      <path id="Caminho_35" data-name="Caminho 35" d="M152.673,33.7V28.565a.449.449,0,0,1,.5-.5h2.4a3.075,3.075,0,1,1,0,6.139h-2.4a.449.449,0,0,1-.5-.5m2.813-1.086a1.316,1.316,0,0,0,1.341-1.482,1.317,1.317,0,0,0-1.341-1.483h-.85v2.965Z" transform="translate(66.559 12.234)" fill="#51b6bd"/>
      <path id="Caminho_36" data-name="Caminho 36" d="M157.56,33.7V28.565a.448.448,0,0,1,.5-.5h3.721a.453.453,0,0,1,.5.5v.586a.453.453,0,0,1-.5.5h-2.256V30.4h1.587a.449.449,0,0,1,.5.5v.481a.453.453,0,0,1-.5.5h-1.587v.737h2.285a.456.456,0,0,1,.5.51V33.7a.453.453,0,0,1-.5.5H158.06a.449.449,0,0,1-.5-.5" transform="translate(68.69 12.235)" fill="#51b6bd"/>
      <path id="Caminho_37" data-name="Caminho 37" d="M162.8,33.7V28.565a.448.448,0,0,1,.5-.5h3.656a.448.448,0,0,1,.5.5v.586a.449.449,0,0,1-.5.5h-2.191v.9h1.5a.453.453,0,0,1,.5.5v.481a.453.453,0,0,1-.5.5h-1.5V33.7a.456.456,0,0,1-.51.5H163.3a.449.449,0,0,1-.5-.5" transform="translate(70.975 12.235)" fill="#51b6bd"/>
      <path id="Caminho_38" data-name="Caminho 38" d="M172.3,34.161a1.9,1.9,0,0,1-.82.179,1.527,1.527,0,0,1-1.1-.415,2.415,2.415,0,0,1-.437-.594h-2.049l-.151.386c-.122.322-.19.5-.52.5h-1.152c-.34,0-.52-.19-.369-.5l2.494-5.184a.775.775,0,0,1,.737-.5h.112a.775.775,0,0,1,.737.5l1.758,3.871a.512.512,0,0,0,.131.208.453.453,0,0,0,.266-.029c.236-.066.33.029.4.3l.2.775c.086.32-.047.424-.227.5m-3.9-2.115h1.03l-.474-1.389Z" transform="translate(72.215 12.221)" fill="#51b6bd"/>
      <path id="Caminho_39" data-name="Caminho 39" d="M178.667,34.1a2.027,2.027,0,0,1-.925.227c-1.011,0-1.436-.557-1.568-1.539l-.151-1.011-.831,1.984a.749.749,0,0,1-.718.5h-.113a.75.75,0,0,1-.718-.5l-.877-2.088-.179,2.059c-.029.32-.179.481-.5.481h-.992c-.33,0-.5-.161-.454-.481l.765-5.2a.565.565,0,0,1,.6-.5h.122a.7.7,0,0,1,.671.5l1.6,3.324,1.5-3.324a.715.715,0,0,1,.681-.5h.113a.555.555,0,0,1,.6.5l.491,3.248c.056.369.085.671.217.775a.343.343,0,0,0,.312.009c.236-.095.33.047.4.322l.179.727c.076.322-.056.406-.227.491" transform="translate(74.389 12.22)" fill="#51b6bd"/>
      <path id="Caminho_40" data-name="Caminho 40" d="M176.531,27.791c-.18-.274-.123-.454.169-.623l1.614-.974c.435-.273.53-.188.7.1l.322.557c.207.378.122.481-.3.652l-1.727.689c-.34.141-.5.056-.633-.171Zm.481,6.8V29.452a.448.448,0,0,1,.5-.5h.955a.456.456,0,0,1,.51.5V34.59a.456.456,0,0,1-.51.5h-.955a.449.449,0,0,1-.5-.5" transform="translate(76.916 11.347)" fill="#51b6bd"/>
      <path id="Caminho_41" data-name="Caminho 41" d="M179,33.7V28.565a.448.448,0,0,1,.5-.5h.955a.456.456,0,0,1,.51.5v4.052h1.785a.456.456,0,0,1,.5.51V33.7a.453.453,0,0,1-.5.5H179.5a.449.449,0,0,1-.5-.5" transform="translate(78.037 12.235)" fill="#51b6bd"/>
      <path id="Caminho_42" data-name="Caminho 42" d="M182.414,33.7V28.565a.448.448,0,0,1,.5-.5h.955a.456.456,0,0,1,.51.5V33.7a.456.456,0,0,1-.51.5h-.955a.449.449,0,0,1-.5-.5" transform="translate(79.525 12.235)" fill="#51b6bd"/>
      <path id="Caminho_43" data-name="Caminho 43" d="M190.875,34.161a1.9,1.9,0,0,1-.823.179,1.532,1.532,0,0,1-1.1-.415,2.412,2.412,0,0,1-.435-.594h-2.049l-.151.386c-.123.322-.19.5-.52.5H184.64c-.339,0-.518-.19-.368-.5l2.493-5.184a.775.775,0,0,1,.737-.5h.113a.775.775,0,0,1,.737.5l1.756,3.871a.511.511,0,0,0,.132.208.447.447,0,0,0,.264-.029c.237-.066.332.029.4.3l.2.775c.086.32-.046.424-.225.5m-3.9-2.115H188l-.472-1.389Z" transform="translate(80.312 12.221)" fill="#51b6bd"/>
    </g>
  </g>
</svg>
