<svg xmlns="http://www.w3.org/2000/svg" xmlns:xlink="http://www.w3.org/1999/xlink" width="93.142" height="30" viewBox="0 0 93.142 30">
  <defs>
    <clipPath id="clip-path">
      <rect id="Retângulo_32" data-name="Retângulo 32" width="93.142" height="30" fill="none"/>
    </clipPath>
  </defs>
  <g id="Grupo_17" data-name="Grupo 17" transform="translate(0 0)">
    <g id="Grupo_16" data-name="Grupo 16" transform="translate(0 0)" clip-path="url(#clip-path)">
      <path id="Caminho_48" data-name="Caminho 48" d="M22.693,11.235,22.668,1.058a1.143,1.143,0,0,0-.017-.226.613.613,0,0,0-.019-.079h0c0-.01-.007-.021-.01-.031a.477.477,0,0,0-.047-.1.292.292,0,0,0-.06-.065L22.478.527a.415.415,0,0,0-.063-.039.486.486,0,0,0-.107-.042h0l-.037-.01A.71.71,0,0,0,22.1.421a.56.56,0,0,0-.154.014.7.7,0,0,0-.1.026L21.8.477a.507.507,0,0,0-.159.106.47.47,0,0,0-.08.107l-.032.069a.644.644,0,0,0-.034.15l0,.043c0,.051,0,.1,0,.154s0,.084,0,.139L21.44,14.193l-9.8-.084-9.588-.114L2.211,1A1,1,0,0,0,2.067.442.937.937,0,0,0,1.531.047,1.275,1.275,0,0,0,1.09,0,.967.967,0,0,0,.521.226.955.955,0,0,0,.2.809a1.64,1.64,0,0,0-.015.249L.051,15.034,0,28.72v.133a1.289,1.289,0,0,0,.039.29,1.11,1.11,0,0,0,.5.682A1.231,1.231,0,0,0,1.18,30a1.4,1.4,0,0,0,.524-.093,1.1,1.1,0,0,0,.611-.582,1.292,1.292,0,0,0,.1-.558L2.373,15.856l9.271-.079,9.483-.113L21.284,28.8a.838.838,0,0,0,.048.3.72.72,0,0,0,.6.457,1,1,0,0,0,.546-.064.627.627,0,0,0,.311-.323.865.865,0,0,0,.065-.316l-.079-6.786Z" transform="translate(0 0)" fill="#fff"/>
      <path id="Caminho_49" data-name="Caminho 49" d="M78.619,8.151l-.157-3.629v0c-.02-.407-.03-.814-.039-1.221L78.4,1.793a1.271,1.271,0,0,1,0-.132,1.052,1.052,0,0,0-.047-.4.608.608,0,0,0-.591-.35A.713.713,0,0,0,77.39,1a.542.542,0,0,0-.247.345,1.626,1.626,0,0,0-.022.349c0,.048,0,.1,0,.152L77.1,3.338c-.009.408-.017.816-.038,1.225L76.908,8.19c-.11,2.325-.138,4.7-.085,7.273.024.982.058,1.963.092,2.944.049,1.413.1,2.875.118,4.311.013,1.292.011,2.477-.006,3.625q-.011.905-.038,1.811l-.03,1.131a.941.941,0,0,0,.045.371.7.7,0,0,0,.376.412.891.891,0,0,0,.37.075h.043a.9.9,0,0,0,.409-.1.721.721,0,0,0,.356-.444.909.909,0,0,0,.033-.222l.038-1.249q.032-.91.046-1.818l0-.133c.024-1.166.048-2.332.058-3.5l.01-.844c.026-2.1.052-4.278.042-6.419-.019-2.57-.046-4.891-.169-7.265" transform="translate(-45.03 -0.537)" fill="#fff"/>
      <path id="Caminho_50" data-name="Caminho 50" d="M112.55,21.506a.5.5,0,0,0-.094-.3l0,0a.508.508,0,0,0-.259-.169,1.324,1.324,0,0,0-.392-.046c-2.56,0-5.08-.066-7.214-.137l-1.615-.051c-1.838-.059-3.739-.12-5.609-.132-1.094-.014-2.2-.01-3.278,0l-.887.012a1.206,1.206,0,0,0-.628.169.788.788,0,0,0-.37.611,1.462,1.462,0,0,0,0,.188.923.923,0,0,0,.035.243.729.729,0,0,0,.248.369.84.84,0,0,0,.283.146,1.458,1.458,0,0,0,.373.055l1.822-.039q1.351-.028,2.7-.065c1.367-.035,2.778-.072,4.17-.089l.013,2.1-.017,2.454c0,1.342-.03,2.708-.057,4.029l-.122,5.78-.058,4.28a.924.924,0,0,0,.31.745,1.038,1.038,0,0,0,.655.227h.043a1.191,1.191,0,0,0,.241-.023.863.863,0,0,0,.436-.228.927.927,0,0,0,.261-.654l.039-4.341c.014-1.147.014-2.295.014-3.442l0-1.468v-.2c-.017-2.994-.034-6.087-.138-9.136l4.639-.15c.692-.025,1.383-.038,2.074-.05l1.8-.028.043,0a.644.644,0,0,0,.428-.179.562.562,0,0,0,.112-.4c0-.02,0-.04,0-.074" transform="translate(-54.06 -12.114)" fill="#fff"/>
      <path id="Caminho_51" data-name="Caminho 51" d="M181.139,9.231a14.228,14.228,0,0,0-3.361-4.85,14.937,14.937,0,0,0-4.96-3.086,16.373,16.373,0,0,0-5.7-1.026,16.067,16.067,0,0,0-5.693,1.039,14.737,14.737,0,0,0-4.944,3.1,14.055,14.055,0,0,0-3.319,4.867,14.886,14.886,0,0,0-1.091,5.8,15.186,15.186,0,0,0,9.368,13.774,15.689,15.689,0,0,0,5.71,1.177l.254,0a15.114,15.114,0,0,0,5.527-1.027,14.608,14.608,0,0,0,4.954-3.217,15.02,15.02,0,0,0,3.293-4.926,15.28,15.28,0,0,0-.043-11.632m-.98,5.849a13.929,13.929,0,0,1-3.646,9.446,12.785,12.785,0,0,1-9.39,4.1,12.633,12.633,0,0,1-9.374-4.137,14.405,14.405,0,0,1-3.671-9.486,14.276,14.276,0,0,1,.839-5.131,12.533,12.533,0,0,1,2.735-4.436,12.294,12.294,0,0,1,4.36-2.879,13.144,13.144,0,0,1,4.9-.889l.244,0a13.29,13.29,0,0,1,9.3,4.034,13.508,13.508,0,0,1,3.7,9.373" transform="translate(-89.169 -0.158)" fill="#fff"/>
      <path id="Caminho_52" data-name="Caminho 52" d="M112.414,2.265a2.217,2.217,0,1,1,4.435,0,2.217,2.217,0,1,1-4.435,0" transform="translate(-65.914 -0.027)" fill="#fff"/>
    </g>
  </g>
</svg>
